<svg width="93" height="95" viewBox="0 0 93 95" fill="none" xmlns="http://www.w3.org/2000/svg">
    <path fill-rule="evenodd" clip-rule="evenodd"
        d="M56.8805 87.1627C74.9201 82.7942 88.3176 66.5411 88.3176 47.1588C88.3176 24.4274 69.8902 6 47.1588 6C24.4274 6 6 24.4274 6 47.1588C6 66.153 18.8664 82.1421 36.359 86.8861C36.3742 86.857 36.3891 86.8273 36.4038 86.797V78.1568C30.3017 79.3241 25.093 77.3714 24.6217 76.9001C24.5003 76.7786 24.0453 76.0317 23.3989 74.9707C21.5364 71.9134 18.0855 66.2485 16.4528 65.4322C14.2535 64.3325 20.7242 64.8534 21.794 66.3747C22.8638 67.8961 26.8582 72.7136 28.2349 72.9727C31.4247 74.0871 33.2139 74.1821 36.4038 72.9727C36.5719 70.2127 37.1321 68.9693 39.2315 67.4744C34.1762 66.5275 31.5646 65.9146 28.2349 64.3325C19.9773 59.2584 19.461 45.2206 20.5373 44.0673C20.3657 42.171 22.8387 37.2215 24.6217 36.5267C23.2579 31.1174 23.3791 28.5814 25.4072 25.0588C30.4509 25.771 32.9408 26.6235 36.4038 29.4575C43.6234 27.3139 47.9703 26.9623 56.8261 29.4575C61.4115 25.8379 63.8427 24.7152 67.8227 25.0588C69.4554 28.6782 70.0129 30.7904 68.6082 36.0555C71.8692 40.3938 73.1344 43.2918 72.5356 50.8223C71.2461 57.0746 69.9498 59.5145 66.8801 62.4473C62.7969 65.6147 54.1555 67.0031 54.1555 67.0031C54.1555 67.0031 56.8261 68.8882 56.8261 71.2447V86.797C56.8414 86.9291 56.8592 87.0508 56.8805 87.1627Z"
        fill="#f3f3ea" />
</svg>