<svg width="93" height="93" viewBox="0 0 93 93" fill="none" xmlns="http://www.w3.org/2000/svg">
<path fill-rule="evenodd" clip-rule="evenodd"
        d="M90.6949 46.3475C90.6949 70.2876 71.2876 89.6949 47.3475 89.6949C23.4073 89.6949 4 70.2876 4 46.3475C4 22.4073 23.4073 3 47.3475 3C71.2876 3 90.6949 22.4073 90.6949 46.3475ZM25.8155 44.3096C29.8153 37.8096 48.3157 21.3096 51.8155 18.3096C55.3153 15.3095 60.8153 17.8095 56.8155 22.3096C52.8157 26.8096 49.3155 29.8096 49.3155 29.8096C50.7032 29.2438 52.1093 29.8152 55.3155 31.8096C55.3155 31.8096 59.0295 35.2193 62.3155 39.3096C65.6015 43.3997 61.8046 49.1163 57.8155 44.3096C53.8264 39.5027 51.8155 37.8096 51.8155 37.8096C47.7136 35.1042 45.598 34.7937 42.3155 37.3096C42.3155 37.3096 35.8153 43.3096 32.8155 46.8096C29.8157 50.3095 31.2013 54.6888 31.8155 56.3095C32.4297 57.9303 40.5318 64.972 42.3157 66.3095C42.4201 66.3878 42.5253 66.4681 42.6317 66.5492L42.6324 66.5498C44.3418 67.8537 46.3466 69.3829 50.3157 66.8095C50.5056 66.8753 51.2661 66.1076 52.3769 64.9861L52.377 64.9861C53.5517 63.8002 55.1181 62.2188 56.8157 60.8095C60.1185 58.0676 64.2116 60.8598 62.3155 64.8095C60.8328 67.8982 56.7386 70.9566 55.0539 72.215L55.0537 72.2151C54.5841 72.5659 54.3018 72.7769 54.3155 72.8095C47.7399 76.9995 44.1331 76.6472 37.8155 72.3095C37.8155 72.3095 29.3154 66.8095 25.8155 60.3095C22.3156 53.8095 21.8157 50.8095 25.8155 44.3096ZM42.375 49C37.875 49 37.875 56 42.375 56H67.375C70.375 56 70.375 49 67.375 49H42.375Z"
        fill="#f3f3ea" />
</svg>
