<svg width="93" height="93" viewBox="0 0 93 93" fill="none" xmlns="http://www.w3.org/2000/svg">
<path fill-rule="evenodd" clip-rule="evenodd"
        d="M89.8475 46.5C89.8475 70.4402 70.4402 89.8475 46.5 89.8475C22.5599 89.8475 3.15259 70.4402 3.15259 46.5C3.15259 22.5599 22.5599 3.15259 46.5 3.15259C70.4402 3.15259 89.8475 22.5599 89.8475 46.5ZM25.2205 38.6186H33.1018V67.7797H25.2205V38.6186ZM28.767 35.4661C32.0315 35.4661 34.678 33.1725 34.678 30.3432C34.678 27.5139 32.0315 25.2203 28.767 25.2203C25.5024 25.2203 22.856 27.5139 22.856 30.3432C22.856 33.1725 25.5024 35.4661 28.767 35.4661ZM38.6187 37.8305H48.0763V42.5598C48.0763 42.5597 48.0764 42.5595 48.0764 42.5593C48.4767 40.923 54.2187 36.8766 59.5044 37.8305C64.9621 38.9658 66.7704 40.6821 68.1739 45.3178C69.5396 50.9305 69.6293 56.2075 69.3561 66.9915L59.1103 67.3856C59.726 57.6909 59.8984 52.4111 58.7162 48.8644C57.534 45.3178 51.54 43.61 48.0764 51.2288C48.0764 51.2289 48.0763 51.2289 48.0763 51.229V67.7797H38.6187V37.8305Z"
        fill="#f3f3ea" />
</svg>
